Coordinates
version=1
nRows=6
nColumns=46
inDegrees=yes

Units are S.I. units (second, meters, Newtons, ...)
Angles are in degrees.

endheader
time	pelvis_tilt	pelvis_list	pelvis_rotation	pelvis_tx	pelvis_ty	pelvis_tz	bb_angle	bb_tx	bb_ty	bb_tz	hip_flexion_r	hip_adduction_r	hip_rotation_r	knee_angle_r	knee_angle_r_beta	ankle_angle_r	subtalar_angle_r	mtp_angle_r	crank_angle_r	hip_flexion_l	hip_adduction_l	hip_rotation_l	knee_angle_l	knee_angle_l_beta	ankle_angle_l	subtalar_angle_l	mtp_angle_l	crank_angle_l	lumbar_extension	lumbar_bending	lumbar_rotation	arm_flex_r	arm_add_r	arm_rot_r	elbow_flex_r	pro_sup_r	wrist_flex_r	wrist_dev_r	arm_flex_l	arm_add_l	arm_rot_l	elbow_flex_l	pro_sup_l	wrist_flex_l	wrist_dev_l
      5.00000000	    -17.48134521	     -6.79849401	     13.18617177	      0.35958486	      1.20328687	     -0.24318301	      0.00000000	      0.50000000	      0.00000000	      0.25000000	     46.76588500	      1.81577243	     -2.26383605	     92.28432108	      1.61066525	     -3.07195092	    -11.64155033	      0.00000000	      0.00000000	     33.44083020	     -5.13736895	      6.82240417	     32.35077615	      0.56462756	     -1.17830692	     -1.04131905	      0.00000000	      0.00000000	    -62.23824880	      8.00170748	     -8.55836931	     55.80497927	     -8.85844759	     28.64915189	     64.90710651	     51.32648467	      0.00000000	      0.00000000	     48.73859494	    -24.75192786	     21.59798607	     85.35184652	     56.74996956	      0.00000000	      0.00000000
      5.00500000	    -17.41670951	     -7.55901304	     11.72841692	      0.36045939	      1.20125376	     -0.24284121	      0.00000000	      0.50000000	      0.00000000	      0.25000000	     48.10183887	      2.85051829	     -2.19494094	     93.99002839	      1.64043546	     -1.96661415	    -11.06095810	      0.00000000	      0.00000000	     31.80684846	     -6.67664712	      6.03397842	     30.45937816	      0.53161644	     -1.60333651	     -1.12006584	      0.00000000	      0.00000000	    -61.90213022	      7.99718948	     -7.43534929	     56.07367920	     -8.74213098	     29.45992336	     64.50829424	     51.36455796	      0.00000000	      0.00000000	     47.88513302	    -25.22006415	     21.35514610	     85.24932982	     56.69981860	      0.00000000	      0.00000000
      5.01000000	    -17.41949188	     -8.61313423	     10.33017564	      0.36102063	      1.19909587	     -0.24179095	      0.00000000	      0.50000000	      0.00000000	      0.25000000	     49.58427747	      4.12301232	     -2.48698446	     95.50676478	      1.66690750	     -0.97942784	    -10.99086539	      0.00000000	      0.00000000	     30.23634057	     -8.39249451	      5.64263131	     28.48145870	      0.49709523	     -2.04270453	     -1.35233408	      0.00000000	      0.00000000	    -61.42841290	      8.20332740	     -6.43155457	     56.82816519	     -8.40339315	     31.36411937	     63.33082099	     51.42264875	      0.00000000	      0.00000000	     46.72328477	    -26.08802864	     20.78555666	     85.29535396	     56.60549675	      0.00000000	      0.00000000
      5.01500000	    -17.34893188	     -8.99658808	      8.93644555	      0.36171105	      1.19749651	     -0.24192187	      0.00000000	      0.50000000	      0.00000000	      0.25000000	     51.01210021	      4.49282098	     -2.51961783	     97.20010233	      1.69646182	     -0.33693096	    -11.19077009	      0.00000000	      0.00000000	     28.44425239	     -9.54075531	      4.25759279	     26.70614014	      0.46611008	     -2.54457858	     -0.97245914	      0.00000000	      0.00000000	    -61.15013166	      8.19015973	     -5.94661707	     57.41628985	     -7.80669516	     32.49891573	     62.31561802	     51.42803291	      0.00000000	      0.00000000	     45.62496294	    -26.99938957	     20.38186822	     85.37302418	     56.50503300	      0.00000000	      0.00000000
      5.02000000	    -17.51953290	     -9.85845568	      7.56505741	      0.36212940	      1.19567755	     -0.24114529	      0.00000000	      0.50000000	      0.00000000	      0.25000000	     52.62672115	      5.50510938	     -2.63559189	     98.47043133	      1.71863324	      0.56796240	    -10.40907188	      0.00000000	      0.00000000	     26.91455270	    -11.05187591	      3.21269433	     24.74092409	      0.43181059	     -3.21360676	     -0.56331426	      0.00000000	      0.00000000	    -60.65267653	      8.42150200	     -4.71706048	     57.54923201	     -7.56227876	     33.00706281	     62.03312922	     51.45211701	      0.00000000	      0.00000000	     44.90488282	    -27.50854034	     20.30988342	     84.98320501	     56.42761890	      0.00000000	      0.00000000
      5.02500000	    -17.50831419	    -10.35843354	      6.26323355	      0.36294973	      1.19468900	     -0.24108691	      0.00000000	      0.50000000	      0.00000000	      0.25000000	     53.95818913	      6.10220752	     -2.51061121	     99.68444790	      1.73982183	      1.20108013	     -9.12315414	      0.00000000	      0.00000000	     25.18984304	    -12.23686140	      1.65202236	     23.06197711	      0.40250743	     -3.76563696	      0.19460113	      0.00000000	      0.00000000	    -60.40128769	      8.50493900	     -3.80981021	     57.81200122	     -7.32971697	     33.62250442	     61.67988356	     51.46656645	      0.00000000	      0.00000000	     44.30362162	    -27.93599490	     20.30856119	     84.43966715	     56.32360458	      0.00000000	      0.00000000
